<svg width="120" height="48" viewBox="0 0 120 48" fill="none" xmlns="http://www.w3.org/2000/svg">
<path d="M4.20116 18.5061H10.2951C12.5868 18.4539 14.0973 19.3916 14.0973 21.8396C14.0973 23.5584 12.8993 25.0168 11.1805 25.2772V25.3293C12.2222 25.6418 12.4826 26.5793 12.4826 27.5689C12.4826 28.1419 12.3785 28.9753 12.3785 29.8086C12.3785 30.3815 12.4306 30.9024 12.5348 31.267H9.77431C9.72214 30.9545 9.67017 30.6941 9.67017 30.4336C9.67017 29.6003 9.82649 28.7149 9.82649 27.8294C9.82649 26.5794 9.09729 26.2669 8.00352 26.2669H5.34719L4.30551 31.267H1.49292L4.20116 18.5061ZM5.81581 24.2875H8.42003C9.87841 24.2875 11.3368 23.7146 11.3368 22.2562C11.3368 20.902 10.3472 20.6937 9.2534 20.6937H6.59706L5.81581 24.2875Z" fill="white"/>
<path d="M14.4093 31.2666L17.1177 18.506H26.8574L26.3366 20.8497H19.4094L18.8365 23.6102H25.2428L24.7741 25.7977H18.3677L17.7427 28.9228H24.7741L24.2532 31.2666H14.4093Z" fill="white"/>
<path d="M35.9729 29.9648C35.0874 31.1107 33.8895 31.5794 32.7436 31.5794C29.1498 31.5794 27.0664 29.5481 27.0664 25.9543C27.0664 21.8396 29.7227 18.2457 34.0457 18.2457C37.0146 18.2457 39.4626 19.652 39.4626 22.777H36.65C36.5978 21.2145 35.6083 20.5895 34.0457 20.5895C31.1811 20.5895 29.879 23.5063 29.879 25.9543C29.879 27.7251 30.7123 29.2356 32.7957 29.2356C34.9312 29.2356 35.8687 28.0897 36.3375 26.4751H33.3687L33.8374 24.3917H39.2542L37.7958 31.2669H35.9729V29.9648Z" fill="white"/>
<path d="M39.9305 31.2666L42.5868 18.506H52.3266L51.8578 20.8497H44.9306L44.3577 23.6102H50.764L50.2953 25.7977H43.8889L43.2118 28.9228H50.2432L49.7744 31.2666H39.9305Z" fill="white"/>
<path d="M51.8057 31.2666L54.514 18.506H57.4307L60.8683 27.5686H60.9204L62.7433 18.506H65.3475L62.6392 31.2666H59.8266L56.337 22.3081H56.2849L54.462 31.2666H51.8057Z" fill="white"/>
<path d="M65.0872 31.2666L67.7434 18.506H77.4832L77.0144 20.8497H70.0872L69.5143 23.6102H75.9207L75.4519 25.7977H69.0456L68.3685 28.9228H75.4519L74.9311 31.2666H65.0872Z" fill="white"/>
<path d="M79.672 18.5061H85.7659C88.0576 18.4539 89.5681 19.3916 89.5681 21.8396C89.5681 23.5584 88.3701 25.0168 86.6513 25.2772V25.3293C87.693 25.6418 87.9534 26.5793 87.9534 27.5689C87.9534 28.1419 87.8493 28.9753 87.8493 29.8086C87.8493 30.3815 87.9015 30.9024 88.0056 31.267H85.2451C85.193 30.9545 85.141 30.6941 85.141 30.4336C85.141 29.6003 85.2973 28.7149 85.2973 27.8294C85.2973 26.5794 84.5681 26.2669 83.4743 26.2669H80.818L79.7763 31.267H76.9637L79.672 18.5061ZM81.2866 24.2875H83.8908C85.4013 24.2875 86.8076 23.7146 86.8076 22.2562C86.8076 20.902 85.818 20.6937 84.7242 20.6937H82.0679L81.2866 24.2875Z" fill="white"/>
<path d="M97.6412 18.1936C101.079 18.1936 103.318 20.0686 103.318 23.6625C103.318 27.8813 100.818 31.5794 96.3391 31.5794C92.7453 31.5794 90.6619 29.5481 90.6619 25.9543C90.6619 21.7875 93.3182 18.1936 97.6412 18.1936ZM96.3391 29.2356C99.0996 29.2356 100.454 26.3188 100.454 23.8708C100.454 22.1 99.6725 20.5374 97.5891 20.5374C94.7245 20.5374 93.4223 23.4542 93.4223 25.9022C93.4745 27.673 94.3078 29.2356 96.3391 29.2356Z" fill="white"/>
<path d="M106.494 18.506H109.411L112.9 27.5686L114.723 18.506H117.327L114.619 31.2666H111.807L108.317 22.3081H108.265L106.442 31.2666H103.838L106.494 18.506Z" fill="white"/>
</svg>
