<svg width="81" height="47" viewBox="0 0 81 47" fill="none" xmlns="http://www.w3.org/2000/svg">
<mask id="mask0_15_85" style="mask-type:luminance" maskUnits="userSpaceOnUse" x="0" y="0" width="81" height="47">
<path d="M50.332 0.261017H50.3289C45.7432 0.261784 40.8909 0.749001 35.9681 1.77631C15.7959 5.98357 0.922607 17.8301 0.918011 29.0929C0.916837 29.9551 1.00488 30.8152 1.18076 31.6592C2.6409 38.6581 9.95 43.6253 20.1028 45.6447C22.2493 37.3657 27.1851 18.4169 27.1851 18.4169C28.1534 14.6693 28.6935 13.2222 29.6518 11.5905C30.899 9.48223 32.8992 7.73941 35.703 7.48584C37.2275 7.34872 39.4974 7.54022 40.7668 8.43193C41.9657 9.27308 42.1181 10.1541 42.0791 10.9569C41.9963 12.6139 40.9828 13.7224 39.3633 13.7224C37.7017 13.7224 37.1839 12.5036 37.1762 11.7C37.1662 10.6061 37.8151 10.4375 37.8074 9.62703C37.8028 9.21258 37.4259 8.56524 36.3879 8.72765C35.1063 8.92913 34.0391 9.9457 33.3451 11.7184C33.1819 12.1305 32.982 12.6821 32.7322 13.6244L31.4582 18.5786H39.8628C38.765 22.5591 36.9035 29.6299 36.3825 31.5666H32.137L35.0504 20.7083H30.889L24.2411 46.2851C26.4723 46.5344 28.716 46.6556 30.9611 46.6482C35.4303 46.639 40.1708 46.1549 45.0139 45.1437C65.2328 40.9257 80.7006 28.968 80.7152 17.6723C80.7169 16.8356 80.6316 16.0009 80.4608 15.1818C78.5288 5.92305 65.9683 0.261017 50.335 0.261017H50.332ZM13.0043 12.0961H17.97C25.5878 12.0961 26.1241 15.9839 25.4783 18.7517C24.6808 22.1776 22.6277 24.6206 13.883 24.6351L12.0077 31.5666H7.73528C8.5182 28.6769 13.0043 12.0961 13.0043 12.0961ZM51.3263 26.9778C51.3263 22.2764 55.5573 18.2683 60.0802 18.2683C62.3294 18.2683 64.2722 19.3132 64.2722 21.0928C64.2722 22.9383 62.8028 24.8366 60.5812 25.5567C59.1992 26.0194 57.8019 26.2929 55.457 26.2929C55.4011 26.7863 55.4233 26.977 55.4233 27.2436C55.4233 28.4977 56.4897 29.5679 57.9735 29.5679C59.9646 29.5679 61.843 27.7416 62.0628 27.5202L62.8028 29.4982C62.2076 30.1156 61.5442 30.6519 60.7896 31.0433C59.6007 31.6623 58.2378 31.9955 56.747 31.9955C53.515 31.9955 51.3263 29.9747 51.3263 26.9778ZM75.0117 18.3541C77.3705 18.3541 77.7244 19.7568 77.7244 20.8446C77.7244 22.1216 76.8227 22.998 75.7901 22.998C75.0064 22.998 74.6617 22.6832 74.523 22.5453C74.1629 22.1852 74.1024 21.8168 74.0618 21.5103C74.0105 21.1495 73.8925 20.8009 73.4796 20.7335C72.8821 20.6393 72.3933 20.8791 71.8862 21.3295C71.2005 21.9393 70.616 22.903 70.1893 23.83C69.9368 24.3724 69.7246 24.9326 69.5543 25.5062L67.9049 31.5666H63.6287L67.135 18.5786H71.2817L70.5379 21.1817C71.5123 20.0012 73.3356 18.3541 75.0117 18.3541ZM41.7933 18.5786H52.4218C51.1976 22.6173 45.4421 25.8976 43.8533 28.9542H50.5511L49.8493 31.5666H38.9726C38.9726 27.4627 45.8405 22.7223 47.1466 20.7083H41.218L41.7933 18.5786ZM16.7504 14.0335L14.4422 22.5637C17.8313 22.5553 19.9603 21.9684 21.0052 18.6146C21.8586 15.869 21.5246 14.0335 17.4958 14.0335H16.7504ZM57.9559 21.0438C56.8934 21.8581 56.0783 23.1405 55.7596 24.5739C57.6924 24.5064 58.7848 24.2176 59.7876 23.4309C60.6892 22.7238 61.0945 21.9271 61.0945 21.256C61.0945 20.8875 60.8678 20.3099 59.8297 20.3099C59.3571 20.3099 58.5872 20.5573 57.9559 21.0438Z" fill="white"/>
</mask>
<g mask="url(#mask0_15_85)">
<mask id="mask1_15_85" style="mask-type:luminance" maskUnits="userSpaceOnUse" x="0" y="0" width="81" height="47">
<path d="M0.912476 0.261097H80.7142V46.6529H0.912476V0.261097Z" fill="white"/>
</mask>
<g mask="url(#mask1_15_85)">
<path d="M50.3319 0.260971H50.3288C45.7431 0.261738 40.8908 0.748955 35.968 1.77626C15.7958 5.98353 0.922546 17.8301 0.91795 29.0929C0.916776 29.9551 1.00482 30.8151 1.1807 31.6592C2.64084 38.658 9.94994 43.6253 20.1027 45.6446C22.2492 37.3657 27.185 18.4169 27.185 18.4169C28.1533 14.6693 28.6934 13.2221 29.6518 11.5904C30.8989 9.48218 32.8992 7.73937 35.703 7.4858C37.2275 7.34867 39.4973 7.54018 40.7667 8.43188C41.9656 9.27303 42.1181 10.154 42.079 10.9569C41.9963 12.6139 40.9828 13.7224 39.3633 13.7224C37.7017 13.7224 37.1838 12.5036 37.1761 11.7C37.1662 10.606 37.815 10.4375 37.8074 9.62698C37.8028 9.21254 37.4259 8.5652 36.3879 8.7276C35.1062 8.92908 34.0391 9.94565 33.345 11.7183C33.1818 12.1305 32.9819 12.6821 32.7322 13.6243L31.4582 18.5785H39.8627C38.765 22.559 36.9034 29.6299 36.3825 31.5665H32.1369L35.0503 20.7082H30.889L24.241 46.2851C26.4722 46.5344 28.7159 46.6556 30.961 46.6482C35.4303 46.639 40.1707 46.1548 45.0138 45.1436C65.2328 40.9256 80.7005 28.968 80.7151 17.6723C80.7168 16.8355 80.6316 16.0009 80.4608 15.1818C78.5287 5.923 65.9682 0.260971 50.335 0.260971H50.3319ZM13.0043 12.096H17.9699C25.5878 12.096 26.124 15.9838 25.4782 18.7517C24.6807 22.1775 22.6277 24.6205 13.8829 24.6351L12.0076 31.5665H7.73522C8.51814 28.6769 13.0043 12.096 13.0043 12.096ZM51.3263 26.9777C51.3263 22.2764 55.5573 18.2683 60.0802 18.2683C62.3294 18.2683 64.2721 19.3132 64.2721 21.0928C64.2721 22.9382 62.8028 24.8366 60.5812 25.5567C59.1992 26.0194 57.8019 26.2929 55.4569 26.2929C55.401 26.7862 55.4232 26.977 55.4232 27.2436C55.4232 28.4976 56.4896 29.5678 57.9735 29.5678C59.9645 29.5678 61.8429 27.7415 62.0628 27.5201L62.8028 29.4981C62.2075 30.1156 61.5441 30.6518 60.7896 31.0433C59.6006 31.6623 58.2378 31.9955 56.747 31.9955C53.5149 31.9955 51.3263 29.9746 51.3263 26.9777ZM75.0117 18.3541C77.3704 18.3541 77.7243 19.7567 77.7243 20.8446C77.7243 22.1216 76.8227 22.998 75.79 22.998C75.0063 22.998 74.6616 22.6831 74.5229 22.5452C74.1629 22.1852 74.1023 21.8167 74.0617 21.5103C74.0104 21.1495 73.8925 20.8009 73.4795 20.7335C72.882 20.6393 72.3932 20.879 71.8861 21.3295C71.2005 21.9393 70.616 22.903 70.1892 23.8299C69.9367 24.3723 69.7245 24.9326 69.5542 25.5061L67.9048 31.5665H63.6286L67.1349 18.5785H71.2817L70.5378 21.1816C71.5123 20.0011 73.3355 18.3541 75.0117 18.3541ZM41.7933 18.5785H52.4217C51.1976 22.6173 45.4421 25.8976 43.8532 28.9542H50.551L49.8493 31.5665H38.9726C38.9726 27.4627 45.8404 22.7222 47.1466 20.7082H41.2179L41.7933 18.5785ZM16.7504 14.0334L14.4422 22.5636C17.8313 22.5552 19.9602 21.9684 21.0051 18.6145C21.8585 15.8689 21.5245 14.0334 17.4957 14.0334H16.7504ZM57.9558 21.0437C56.8933 21.8581 56.0782 23.1405 55.7595 24.5738C57.6923 24.5064 58.7847 24.2176 59.7875 23.4308C60.6892 22.7237 61.0945 21.927 61.0945 21.256C61.0945 20.8875 60.8677 20.3098 59.8297 20.3098C59.357 20.3098 58.5871 20.5573 57.9558 21.0437Z" fill="white"/>
</g>
</g>
</svg>
